<svg width="48" height="48" viewBox="0 0 48 48" fill="none" xmlns="http://www.w3.org/2000/svg">
<path d="M16.5 36H7.5C7.06667 36 6.70833 35.8583 6.425 35.575C6.14167 35.2917 6 34.9333 6 34.5C6 34.0667 6.14167 33.7083 6.425 33.425C6.70833 33.1417 7.06667 33 7.5 33H16.5C16.9333 33 17.2917 33.1417 17.575 33.425C17.8583 33.7083 18 34.0667 18 34.5C18 34.9333 17.8583 35.2917 17.575 35.575C17.2917 35.8583 16.9333 36 16.5 36ZM40.5 15H7.5C7.06667 15 6.70833 14.8583 6.425 14.575C6.14167 14.2917 6 13.9333 6 13.5C6 13.0667 6.14167 12.7083 6.425 12.425C6.70833 12.1417 7.06667 12 7.5 12H40.5C40.9333 12 41.2917 12.1417 41.575 12.425C41.8583 12.7083 42 13.0667 42 13.5C42 13.9333 41.8583 14.2917 41.575 14.575C41.2917 14.8583 40.9333 15 40.5 15ZM28.5 25.5H7.5C7.06667 25.5 6.70833 25.3583 6.425 25.075C6.14167 24.7917 6 24.4333 6 24C6 23.5667 6.14167 23.2083 6.425 22.925C6.70833 22.6417 7.06667 22.5 7.5 22.5H28.5C28.9333 22.5 29.2917 22.6417 29.575 22.925C29.8583 23.2083 30 23.5667 30 24C30 24.4333 29.8583 24.7917 29.575 25.075C29.2917 25.3583 28.9333 25.5 28.5 25.5Z" fill="#1D1D1D"/>
</svg>
